<svg width="37" height="37" viewBox="0 0 37 37" fill="none" xmlns="http://www.w3.org/2000/svg">
<path d="M18.5 1.85059C16.2134 1.85057 13.9827 2.55667 12.1127 3.87239C10.2426 5.18811 8.82453 7.04924 8.05222 9.20138C7.27991 11.3535 7.19107 13.6917 7.79785 15.8962C8.40462 18.1007 9.6774 20.0641 11.4422 21.5179C13.3884 23.1256 14.8 24.8701 14.8 26.7442V27.9356C14.7998 28.2464 14.904 28.5483 15.0959 28.7929C15.2878 29.0374 15.5562 29.2105 15.8582 29.2842C17.5938 29.7084 19.4061 29.7084 21.1418 29.2842C21.4437 29.2105 21.7122 29.0374 21.9041 28.7929C22.0959 28.5483 22.2001 28.2464 22.2 27.9356V26.7442C22.2 24.8701 23.6097 23.1237 25.5577 21.5179C27.3225 20.0641 28.5953 18.1007 29.2021 15.8962C29.8089 13.6917 29.72 11.3535 28.9477 9.20138C28.1754 7.04924 26.7573 5.18811 24.8873 3.87239C23.0172 2.55667 20.7865 1.85057 18.5 1.85059ZM16.3965 32.2165C16.2164 32.189 16.0326 32.1973 15.8556 32.2409C15.6787 32.2845 15.5121 32.3625 15.3653 32.4705C15.0688 32.6885 14.8711 33.0154 14.8157 33.3792C14.7602 33.743 14.8516 34.114 15.0697 34.4104C15.2877 34.7069 15.6146 34.9046 15.9784 34.96C17.6498 35.2142 19.3501 35.2142 21.0215 34.96C21.3853 34.9046 21.7122 34.7069 21.9303 34.4104C22.1483 34.114 22.2397 33.743 22.1842 33.3792C22.1288 33.0154 21.9311 32.6885 21.6346 32.4705C21.3382 32.2524 20.9672 32.161 20.6034 32.2165C19.2092 32.4288 17.7908 32.4288 16.3965 32.2165Z" fill="#FFC700"/>
</svg>
