<svg width="33" height="33" viewBox="0 0 33 33" fill="none" xmlns="http://www.w3.org/2000/svg">
<path d="M16.5 1.65039C14.4606 1.65037 12.4711 2.28015 10.8032 3.45362C9.13531 4.6271 7.87052 6.28703 7.18171 8.2065C6.49289 10.126 6.41366 12.2113 6.95484 14.1776C7.49601 16.1438 8.6312 17.8949 10.2052 19.1915C11.941 20.6254 13.2 22.1813 13.2 23.8528V24.9154C13.1998 25.1926 13.2928 25.4619 13.4639 25.68C13.635 25.8981 13.8745 26.0524 14.1438 26.1182C15.6918 26.4965 17.3081 26.4965 18.8562 26.1182C19.1255 26.0524 19.3649 25.8981 19.536 25.68C19.7072 25.4619 19.8001 25.1926 19.8 24.9154V23.8528C19.8 22.1813 21.0573 20.6237 22.7947 19.1915C24.3687 17.8949 25.5039 16.1438 26.0451 14.1776C26.5863 12.2113 26.507 10.126 25.8182 8.2065C25.1294 6.28703 23.8646 4.6271 22.1968 3.45362C20.5289 2.28015 18.5393 1.65037 16.5 1.65039ZM14.6239 28.7335C14.4632 28.709 14.2993 28.7164 14.1415 28.7553C13.9837 28.7941 13.8351 28.8637 13.7042 28.96C13.4398 29.1545 13.2634 29.446 13.214 29.7705C13.1645 30.095 13.246 30.4258 13.4405 30.6903C13.635 30.9547 13.9265 31.131 14.251 31.1804C15.7417 31.4071 17.2582 31.4071 18.7489 31.1804C19.0734 31.131 19.365 30.9547 19.5594 30.6903C19.7539 30.4258 19.8354 30.095 19.7859 29.7705C19.7365 29.446 19.5602 29.1545 19.2958 28.96C19.0313 28.7655 18.7005 28.684 18.376 28.7335C17.1325 28.9228 15.8675 28.9228 14.6239 28.7335Z" fill="#F8F8F8"/>
</svg>
